<svg xmlns="http://www.w3.org/2000/svg" width="35.003" height="18.105"><g data-name="Group 12"><g data-name="Group 11" fill="#5b3421"><path data-name="Path 22" d="M33.193 6.109V2.894a2.847 2.847 0 0 0-2.836-2.9h-7.544a2.86 2.86 0 0 0-2.9 2.9v3.215a2.424 2.424 0 0 0-1.811 2.337v8.449a1.211 1.211 0 0 0 1.207 1.207h1.207a1.211 1.211 0 0 0 1.207-1.207v-1.207h9.656v1.207a1.211 1.211 0 0 0 1.207 1.207h1.207A1.211 1.211 0 0 0 35 16.895V8.449a2.424 2.424 0 0 0-1.807-2.34zm-12.07-3.215a1.65 1.65 0 0 1 1.69-1.69h7.483a1.65 1.65 0 0 1 1.69 1.69v3.138h-.646a4.194 4.194 0 0 0-4.182-3.621h-1.207a4.194 4.194 0 0 0-4.185 3.624h-.646V2.897zm8.992 3.138h-7.121a3.036 3.036 0 0 1 2.957-2.414h1.207a3.036 3.036 0 0 1 2.957 2.417zm-10.8 2.414a1.211 1.211 0 0 1 1.207-1.207h12.07a1.211 1.211 0 0 1 1.207 1.207v2.414H19.312zm14.484 8.449h-1.207v-1.811a.57.57 0 0 0-.6-.6H21.123a.6.6 0 0 0-.6.6v1.811h-1.207v-4.828h14.48z"/><path data-name="Path 23" d="M15.088 6.109V2.894a2.847 2.847 0 0 0-2.836-2.9H4.707a2.86 2.86 0 0 0-2.9 2.9v3.215A2.424 2.424 0 0 0 0 8.449v8.449a1.211 1.211 0 0 0 1.207 1.211h1.207a1.211 1.211 0 0 0 1.207-1.207v-1.207h9.656v1.207a1.211 1.211 0 0 0 1.207 1.207h1.207a1.211 1.211 0 0 0 1.207-1.207V8.449a2.424 2.424 0 0 0-1.81-2.34zM3.018 2.894a1.65 1.65 0 0 1 1.69-1.69h7.483a1.65 1.65 0 0 1 1.69 1.69v3.138h-.646a4.194 4.194 0 0 0-4.182-3.621H7.846a4.194 4.194 0 0 0-4.182 3.621h-.646zm8.992 3.138H4.888a3.036 3.036 0 0 1 2.957-2.414h1.208a3.036 3.036 0 0 1 2.957 2.417zM1.207 8.449a1.211 1.211 0 0 1 1.207-1.207h12.07a1.211 1.211 0 0 1 1.207 1.207v2.414H1.207zm14.484 8.449h-1.207v-1.811a.57.57 0 0 0-.6-.6H3.018a.6.6 0 0 0-.6.6v1.811H1.207V12.07h14.484z"/></g></g></svg>