<svg xmlns="http://www.w3.org/2000/svg" width="28.8" height="18"><g data-name="Group 13"><path data-name="Path 24" d="M27 4.8h-.6v-3A1.8 1.8 0 0 0 24.6 0H4.2a1.8 1.8 0 0 0-1.8 1.8v3h-.6A1.8 1.8 0 0 0 0 6.6v7.2a1.8 1.8 0 0 0 1.8 1.8h.6v1.8a.6.6 0 0 0 .6.6h3.6a.6.6 0 0 0 .6-.6v-1.8h14.4v1.8a.6.6 0 0 0 .6.6h3.6a.6.6 0 0 0 .6-.6v-1.8h.6a1.8 1.8 0 0 0 1.8-1.8V6.6A1.8 1.8 0 0 0 27 4.8zm-23.4-3a.6.6 0 0 1 .6-.6h20.4a.6.6 0 0 1 .6.6v3.11A1.8 1.8 0 0 0 24 6.6v1.8H4.8V6.6a1.8 1.8 0 0 0-1.2-1.69zM24 9.6v1.2H4.8V9.6zM6 16.8H3.6v-1.2H6zm19.2 0h-2.4v-1.2h2.4zm2.4-3a.6.6 0 0 1-.6.6H1.8a.6.6 0 0 1-.6-.6V6.6a.6.6 0 0 1 .6-.6H3a.6.6 0 0 1 .6.6v4.8a.6.6 0 0 0 .6.6h20.4a.6.6 0 0 0 .6-.6V6.6a.6.6 0 0 1 .6-.6H27a.6.6 0 0 1 .6.6z" fill="#5b3421"/></g></svg>