<svg xmlns="http://www.w3.org/2000/svg" width="21.967" height="20.921"><g fill="#5b3421"><path data-name="Path 20" d="M10.947 11.741a5.87 5.87 0 1 0-5.879-5.879 5.88 5.88 0 0 0 5.879 5.879zm0-10.208a4.328 4.328 0 1 1-4.328 4.328 4.341 4.341 0 0 1 4.328-4.328z"/><path data-name="Path 21" d="M.776 20.921h20.415a.77.77 0 0 0 .775-.775 7.385 7.385 0 0 0-7.376-7.376H7.376A7.385 7.385 0 0 0 0 20.143a.77.77 0 0 0 .776.778zm6.6-6.6h7.214a5.822 5.822 0 0 1 5.771 5.05H1.605a5.837 5.837 0 0 1 5.771-5.051z"/></g></svg>