<svg xmlns="http://www.w3.org/2000/svg" width="135.5" height="126.121"><path data-name="Path 35" d="M125.477 67.238h-16.53a10.034 10.034 0 0 0-10.022 10.023v7.632l-9.188-5.041a8.9 8.9 0 0 0-.874-2.353l9.531-16.483h23.452a2.648 2.648 0 0 0 2.122-4.229l-7.024-9.422a2.647 2.647 0 0 0-2.122-1.065h-6.894L99.4 37.776A2.646 2.646 0 0 0 97.533 37h-5.594a11.923 11.923 0 0 0-9.125-8.985l2.894-8.115 8.392-5.695h5.4v6.267a2.647 2.647 0 0 0 2.646 2.646h8.756a2.646 2.646 0 0 0 2.646-2.646v-2.107H124.9v.784a2.646 2.646 0 0 0 5.293 0V4.3a2.646 2.646 0 0 0-5.293 0v.335h-11.347V2.646A2.646 2.646 0 0 0 110.906 0h-8.756a2.646 2.646 0 0 0-2.45 1.653h-6.413A2.647 2.647 0 0 0 90.64 4.3v5.857l-7.608 5.161-13.844-3.83a2.658 2.658 0 0 0-1.411 0l-13.845 3.83-7.608-5.161V4.3a2.646 2.646 0 0 0-2.646-2.646h-6.411A2.646 2.646 0 0 0 34.816 0H26.06a2.646 2.646 0 0 0-2.646 2.646v1.988H12.067V4.3a2.646 2.646 0 0 0-5.293 0v14.85a2.646 2.646 0 0 0 5.293 0v-.785h11.346v2.108a2.646 2.646 0 0 0 2.647 2.647h8.756a2.647 2.647 0 0 0 2.646-2.646v-6.268h5.4l8.395 5.694 2.815 7.9A11.91 11.91 0 0 0 43.348 37h-5.594a2.647 2.647 0 0 0-1.871.774L27.359 46.3h-6.894a2.647 2.647 0 0 0-2.122 1.065l-7.024 9.423a2.647 2.647 0 0 0 2.122 4.228h23.453l9.643 16.675a8.917 8.917 0 0 0-.773 2.162l-9.188 5.04v-7.632a10.034 10.034 0 0 0-10.023-10.023h-16.53A10.034 10.034 0 0 0 0 77.261V116.1a10.034 10.034 0 0 0 10.023 10.02h16.53a10.034 10.034 0 0 0 10.022-10.02v-10.156l10.272-5.634a8.936 8.936 0 0 0 7.642 4.31h26.522a8.936 8.936 0 0 0 7.642-4.31l10.272 5.634V116.1a10.034 10.034 0 0 0 10.023 10.023h16.53A10.034 10.034 0 0 0 135.5 116.1V77.261a10.034 10.034 0 0 0-10.023-10.023zM86.391 37H76.158l4.186-3.275a2.633 2.633 0 0 0 .583-.647A6.608 6.608 0 0 1 86.391 37zm-17.908-.714l-4.133-3.234h8.266zM124.9 9.927v3.145h-11.347V9.927zm-16.64-2.646v10.546h-3.46V5.293h3.463zm-12.327-.335H99.5v1.967h-3.567zm-27.45 9.84l11.575 3.2-2.772 7.773H59.679l-2.771-7.773zm-56.416-3.714V9.927h11.346v3.145zm20.1 4.754h-3.461V5.293h3.463zm5.293-8.913V6.945h3.57v1.968zm17.476 24.139h1.085a2.648 2.648 0 0 0 .6.674L60.807 37H48.9a6.6 6.6 0 0 1 6.036-3.948zM38.421 55.724H18.715l3.078-4.13h61.372a2.646 2.646 0 0 0 0-5.293H34.844l4.007-4.007h57.586l8.525 8.525a2.646 2.646 0 0 0 1.871.775h6.667l3.078 4.13h-19.71a2.647 2.647 0 0 0-2.291 1.321L81.808 79.126a2.76 2.76 0 0 1-.108.172 4.058 4.058 0 0 1-2.276 1.687c-.021.005-.04.013-.061.019s-.028.006-.04.009a4.038 4.038 0 0 1-1.012.131H56.978a4.067 4.067 0 0 1-3.356-1.791 2.98 2.98 0 0 1-.143-.227L40.711 57.045a2.648 2.648 0 0 0-2.29-1.321zm-11.868 65.1h-5.619v-40.35a2.646 2.646 0 0 0-5.293 0v40.354h-5.618a4.736 4.736 0 0 1-4.73-4.73v-2.324H8.13a2.646 2.646 0 1 0 0-5.293H5.293v-9.5H8.13a2.646 2.646 0 1 0 0-5.293H5.293v-9.5H8.13a2.646 2.646 0 1 0 0-5.293H5.293v-1.634a4.735 4.735 0 0 1 4.73-4.73h16.53a4.735 4.735 0 0 1 4.73 4.73v1.625h-2.837a2.646 2.646 0 0 0 0 5.293h2.837v9.5h-2.837a2.646 2.646 0 0 0 0 5.293h2.837v9.5h-2.837a2.646 2.646 0 0 0 0 5.293h2.837v2.335a4.735 4.735 0 0 1-4.73 4.728zm10.023-29.9L45.557 86v8.977l-8.982 4.927zm44.436 8.4H54.489a3.641 3.641 0 0 1-3.638-3.615V84.14a9.439 9.439 0 0 0 5.757 2.288c.382.018.766.009 1.15.009h20.524a9.418 9.418 0 0 0 6.367-2.486v11.766a3.64 3.64 0 0 1-3.638 3.61zm8.932-4.346V86l8.982 4.926v8.977zm35.534 25.847h-5.619V80.474a2.646 2.646 0 0 0-5.293 0v40.354h-5.618a4.736 4.736 0 0 1-4.731-4.73v-2.324h2.838a2.646 2.646 0 0 0 0-5.293h-2.838v-9.5h2.838a2.646 2.646 0 1 0 0-5.293h-2.838v-9.5h2.838a2.646 2.646 0 1 0 0-5.293h-2.838v-1.634a4.735 4.735 0 0 1 4.731-4.73h16.529a4.734 4.734 0 0 1 4.73 4.73v1.625h-2.837a2.646 2.646 0 0 0 0 5.293h2.837v9.5h-2.838a2.646 2.646 0 0 0 0 5.293h2.838v9.5h-2.838a2.646 2.646 0 0 0 0 5.293h2.838v2.335a4.736 4.736 0 0 1-4.73 4.728zm0 0" fill="#fff"/><path data-name="Path 36" d="M54.897 68.189l4.141 7.669a4.3 4.3 0 0 0 3.79 2.261h9.737a4.3 4.3 0 0 0 3.79-2.261l4.141-7.67.01-.018 3.29-6.092a4.308 4.308 0 0 0-3.79-6.355H55.385a4.307 4.307 0 0 0-3.79 6.354l3.29 6.088zm17.081 4.637h-8.562l-1.761-3.261h12.083zm6.376-11.809l-1.758 3.255h-17.8l-1.757-3.255zm0 0" fill="#fff"/><path data-name="Path 37" d="M91.383 49.96a2.645 2.645 0 1 0 1.046-3.26 2.669 2.669 0 0 0-1.046 3.26zm0 0" fill="#fff"/></svg>