<svg xmlns="http://www.w3.org/2000/svg" width="148.5" height="159.623"><g data-name="Group 34"><g data-name="Group 33"><path data-name="Path 38" d="M69.638 69.455a3.739 3.739 0 0 0-.556-1.338 3.553 3.553 0 0 0-.462-.566 3.763 3.763 0 0 0-3.366-1.021 3.738 3.738 0 0 0-1.338.556 3.79 3.79 0 0 0-1.033 1.033 3.79 3.79 0 0 0-.343.641 3.867 3.867 0 0 0-.213.7 3.742 3.742 0 0 0 1.021 3.366 3.567 3.567 0 0 0 .566.462 3.791 3.791 0 0 0 .641.343 3.863 3.863 0 0 0 .7.213 3.726 3.726 0 0 0 4.458-3.653 3.656 3.656 0 0 0-.075-.736z" fill="#fff"/></g></g><g data-name="Group 36"><g data-name="Group 35"><path data-name="Path 39" d="M34.638 70.738a3.6 3.6 0 0 0-.213-.7 3.8 3.8 0 0 0-.343-.641 3.631 3.631 0 0 0-1.029-1.029 3.689 3.689 0 0 0-.645-.343 3.511 3.511 0 0 0-.7-.213 3.67 3.67 0 0 0-1.454 0 3.6 3.6 0 0 0-.7.213 3.8 3.8 0 0 0-.641.343 3.554 3.554 0 0 0-.566.462 3.706 3.706 0 0 0-.809 1.208 3.9 3.9 0 0 0-.213.7 3.77 3.77 0 0 0 0 1.454 3.745 3.745 0 0 0 .213.7 3.7 3.7 0 0 0 .343.645 3.794 3.794 0 0 0 .466.566 3.585 3.585 0 0 0 .566.462 3.791 3.791 0 0 0 .641.343 3.9 3.9 0 0 0 .7.213 3.584 3.584 0 0 0 1.454 0 3.756 3.756 0 0 0 .7-.213 3.7 3.7 0 0 0 .645-.343 3.63 3.63 0 0 0 1.029-1.029 3.688 3.688 0 0 0 .343-.645 3.509 3.509 0 0 0 .213-.7 3.577 3.577 0 0 0 0-1.454z" fill="#fff"/></g></g><g data-name="Group 38"><g data-name="Group 37"><path data-name="Path 40" d="M104.638 70.737a3.877 3.877 0 0 0-.213-.7 3.69 3.69 0 0 0-2.017-2.013 3.85 3.85 0 0 0-.7-.216 3.687 3.687 0 0 0-1.457 0 3.783 3.783 0 0 0-.7.216 3.584 3.584 0 0 0-1.212.805 3.583 3.583 0 0 0-.462.566 3.789 3.789 0 0 0-.343.641 3.9 3.9 0 0 0-.213.7 3.584 3.584 0 0 0 0 1.454 3.79 3.79 0 0 0 .213.7 3.7 3.7 0 0 0 .343.645 3.554 3.554 0 0 0 .462.566 3.76 3.76 0 0 0 .566.462 3.974 3.974 0 0 0 .645.343 3.509 3.509 0 0 0 .7.213 3.68 3.68 0 0 0 .727.075 3.722 3.722 0 0 0 .731-.075 3.564 3.564 0 0 0 .7-.213 3.8 3.8 0 0 0 .641-.343 3.554 3.554 0 0 0 .566-.462 3.831 3.831 0 0 0 .466-.566 3.689 3.689 0 0 0 .343-.645 3.774 3.774 0 0 0 .213-.7 3.76 3.76 0 0 0 0-1.454z" fill="#fff"/></g></g><g data-name="Group 40"><g data-name="Group 39"><path data-name="Path 41" d="M148.088 76.351a3.728 3.728 0 0 0-5.018-1.615 76.741 76.741 0 0 0-15.041 10.12l3.9-27.309a3.728 3.728 0 0 0-3.69-4.255h-44.7L82.108 45.4a25.563 25.563 0 1 0-32.248 0l-1.435 7.893h-44.7a3.728 3.728 0 0 0-3.69 4.255l4.59 32.128a3.719 3.719 0 0 0-3.473 4.275l3.531 23.306a3.728 3.728 0 0 0 3.686 3.169h.649l5.143 36a3.728 3.728 0 0 0 3.69 3.2h96.261a3.727 3.727 0 0 0 3.69-3.2l5.143-36h.649a3.728 3.728 0 0 0 3.686-3.169l3.531-23.306a3.725 3.725 0 0 0-.084-1.506 69.133 69.133 0 0 1 15.744-11.075 3.727 3.727 0 0 0 1.617-5.019zM47.877 25.562A18.107 18.107 0 1 1 75.962 40.67a3.729 3.729 0 0 0-1.609 3.775l1.609 8.847h-19.96l1.608-8.847a3.726 3.726 0 0 0-1.609-3.774 18.085 18.085 0 0 1-8.124-15.109zM12.253 112.97h-.676l-2.4-15.851h107.439a75.825 75.825 0 0 0-9.035 15.851zm92.643 7.455q-.766 2.53-1.36 5.131h-5.267l.668-5.131zm-13.478 0l-.668 5.131H69.711v-5.131zm-70.332 31.742l-4.535-31.742h16.456l2.478 20.512a3.728 3.728 0 0 0 3.7 3.281 3.814 3.814 0 0 0 .452-.027 3.728 3.728 0 0 0 3.254-4.148l-2.369-19.617h21.734v6.991a3.7 3.7 0 0 0-.505 1.868v5.405a24.34 24.34 0 0 0 7.391 17.477H21.086zm82.042-17.477a16.961 16.961 0 0 1-33.922 0v-1.678h33.922v1.678zm7.754 17.477h-7.688a24.34 24.34 0 0 0 7.391-17.477v-5.405a3.772 3.772 0 0 0-.075-.746 69.683 69.683 0 0 1 2.219-8.113h2.688zm9.508-39.2h-4.639a68.376 68.376 0 0 1 6.242-10.58zm-.58-23.306h-17.134l.872-7.219a3.728 3.728 0 0 0-7.4-.894l-.986 8.116H69.711v-8.885a3.728 3.728 0 0 0-7.455 0v8.885H36.801l-.98-8.114a3.728 3.728 0 0 0-7.4.894l.872 7.219H12.157L8.026 60.748h115.916z" fill="#fff"/></g></g><g data-name="Group 42"><g data-name="Group 41"><path data-name="Path 42" d="M65.984 12.775A12.985 12.985 0 1 0 78.969 25.76a13 13 0 0 0-12.985-12.985zm0 18.514a5.529 5.529 0 1 1 5.529-5.529 5.536 5.536 0 0 1-5.53 5.529z" fill="#fff"/></g></g></svg>