<svg xmlns="http://www.w3.org/2000/svg" width="198" height="198"><g data-name="Group 15"><g data-name="Group 14"><path data-name="Path 25" d="M140.21 66.732l-2.119-6.973a15.147 15.147 0 0 0-28.684 0l-2.119 6.973a39.168 39.168 0 0 0-1.092 18.15 17.071 17.071 0 0 0 8.791 11.9l-2.373 53.041a10.451 10.451 0 0 0 2.64 8.125 11.527 11.527 0 0 0 16.285.73q.381-.348.73-.73a10.31 10.31 0 0 0 2.64-7.9l-2.386-53.269a17.067 17.067 0 0 0 8.778-11.89 39.168 39.168 0 0 0-1.091-18.157zm-5.409 17a10.463 10.463 0 0 1-6.848 7.884 3.3 3.3 0 0 0-2.135 3.237l2.508 55.707a3.818 3.818 0 0 1-.99 2.99 5.1 5.1 0 0 1-7.174 0 3.961 3.961 0 0 1-.97-3.208l2.488-55.49a3.3 3.3 0 0 0-2.135-3.237 10.463 10.463 0 0 1-6.848-7.884 32.543 32.543 0 0 1 .908-15.068l2.119-6.976a8.557 8.557 0 0 1 16.051 0l2.119 6.976a32.587 32.587 0 0 1 .908 15.071z" fill="#fff"/></g></g><g data-name="Group 17"><g data-name="Group 16"><path data-name="Path 26" d="M89.1 49.5a3.3 3.3 0 0 0-3.3 3.3v28.334l-8.933 8.933a3.3 3.3 0 0 0-.967 2.5l2.887 57.75a4.5 4.5 0 0 1-1.247 3.363 4.646 4.646 0 0 1-6.571.029l-.029-.029a4.494 4.494 0 0 1-1.247-3.363l2.907-57.75a3.3 3.3 0 0 0-.964-2.5L62.7 81.134V52.8a3.3 3.3 0 1 0-6.6 0v29.7a3.3 3.3 0 0 0 .967 2.333l8.864 8.867-2.815 56.295a11.147 11.147 0 1 0 22.268 1.085q.027-.542 0-1.084L82.569 93.7l8.864-8.867A3.3 3.3 0 0 0 92.4 82.5V52.8a3.3 3.3 0 0 0-3.3-3.3z" fill="#fff"/></g></g><g data-name="Group 19"><g data-name="Group 18"><path data-name="Path 27" d="M69.3 49.5a3.3 3.3 0 0 0-3.3 3.3v26.4a3.3 3.3 0 1 0 6.6 0V52.8a3.3 3.3 0 0 0-3.3-3.3z" fill="#fff"/></g></g><g data-name="Group 21"><g data-name="Group 20"><path data-name="Path 28" d="M79.2 49.5a3.3 3.3 0 0 0-3.3 3.3v26.4a3.3 3.3 0 1 0 6.6 0V52.8a3.3 3.3 0 0 0-3.3-3.3z" fill="#fff"/></g></g><g data-name="Group 23"><g data-name="Group 22"><path data-name="Path 29" d="M99 0a99 99 0 1 0 99 99A99 99 0 0 0 99 0zm0 191.4A92.4 92.4 0 1 1 191.4 99 92.4 92.4 0 0 1 99 191.4z" fill="#fff"/></g></g><g data-name="Group 25"><g data-name="Group 24"><path data-name="Path 30" d="M109.709 160.945a3.3 3.3 0 0 0-3.605-2.964l-.127.015h.013a60.62 60.62 0 0 1-13.985 0 3.301 3.301 0 1 0-.769 6.557 66.841 66.841 0 0 0 15.51 0 3.3 3.3 0 0 0 2.963-3.608z" fill="#fff"/></g></g><g data-name="Group 27"><g data-name="Group 26"><path data-name="Path 31" d="M149.49 56.476a3.3 3.3 0 0 0-4.649-.408l-.014.012a3.3 3.3 0 0 0-.4 4.65 59.4 59.4 0 0 1-3.5 80.345 3.3 3.3 0 1 0 4.66 4.676 66 66 0 0 0 3.903-89.275z" fill="#fff"/></g></g><g data-name="Group 30"><g data-name="Group 29"><g data-name="Group 28"><path data-name="Path 33" d="M114.566 34.844a66.584 66.584 0 0 0-38.844 2.386 3.3 3.3 0 1 0 2.313 6.174 59.95 59.95 0 0 1 34.98-2.145 3.3 3.3 0 0 0 1.551-6.415z" fill="#fff"/></g></g></g><g data-name="Group 32"><g data-name="Group 31"><path data-name="Path 34" d="M56.921 140.91a59.393 59.393 0 0 1-5.966-76.85 3.3 3.3 0 1 0-5.276-3.966l-.057.078a66 66 0 0 0 6.623 85.411 3.305 3.305 0 0 0 4.676-4.673z" fill="#fff"/></g></g></svg>