<svg xmlns="http://www.w3.org/2000/svg" width="47.308" height="44.033"><path data-name="Path 16" d="M43.809 23.475h-5.772a3.5 3.5 0 0 0-3.5 3.5v2.665l-3.208-1.76a3.107 3.107 0 0 0-.3-.821l3.324-5.759h8.188a.924.924 0 0 0 .741-1.477l-2.452-3.29a.924.924 0 0 0-.741-.372h-2.407l-2.976-2.976a.924.924 0 0 0-.653-.271H32.1a4.163 4.163 0 0 0-3.186-3.137l1.01-2.834 2.93-1.988h1.886v2.193a.924.924 0 0 0 .924.924h3.057a.924.924 0 0 0 .924-.924v-.736h3.961v.274a.924.924 0 1 0 1.848 0V1.5a.924.924 0 1 0-1.848 0v.117h-3.961V.924A.924.924 0 0 0 38.721 0h-3.057a.924.924 0 0 0-.856.577H32.57a.924.924 0 0 0-.924.924v2.045l-2.656 1.8-4.834-1.335a.928.928 0 0 0-.493 0L18.83 5.348l-2.656-1.8V1.5a.924.924 0 0 0-.924-.923h-2.239A.924.924 0 0 0 12.155 0H9.1a.924.924 0 0 0-.924.924v.694H4.213V1.5a.924.924 0 1 0-1.848 0v5.186a.924.924 0 1 0 1.848 0v-.274h3.961v.736a.924.924 0 0 0 .924.924h3.057a.924.924 0 0 0 .924-.924V4.96h1.887L17.9 6.947l.978 2.753a4.158 4.158 0 0 0-3.744 3.215h-1.953a.924.924 0 0 0-.653.27l-2.976 2.98H7.145a.924.924 0 0 0-.741.372l-2.452 3.29a.924.924 0 0 0 .741 1.473h8.188l3.367 5.822a3.113 3.113 0 0 0-.27.755l-3.208 1.76v-2.662a3.5 3.5 0 0 0-3.5-3.5H3.5a3.5 3.5 0 0 0-3.5 3.5v13.559a3.5 3.5 0 0 0 3.5 3.5h5.771a3.5 3.5 0 0 0 3.5-3.5v-3.545l3.586-1.967a3.12 3.12 0 0 0 2.668 1.5h9.26a3.12 3.12 0 0 0 2.668-1.5l3.586 1.967v3.545a3.5 3.5 0 0 0 3.5 3.5h5.771a3.5 3.5 0 0 0 3.5-3.5V26.975a3.5 3.5 0 0 0-3.501-3.5zM30.162 12.918h-3.573l1.461-1.143a.919.919 0 0 0 .2-.226 2.307 2.307 0 0 1 1.912 1.369zm-6.252-.249l-1.443-1.129h2.886zm19.7-9.2v1.1h-3.965v-1.1zm-5.81-.927v3.682h-1.212V1.848H37.8zm-4.3-.117h1.24v.687h-1.246zM23.91 5.86l4.041 1.117-.968 2.714h-6.147l-.967-2.714zm-19.7-1.3v-1.1h3.964v1.1zm7.018 1.66h-1.206V1.848h1.209zm1.848-3.112v-.683h1.246v.687zm6.1 8.428h.379a.925.925 0 0 0 .21.235l1.461 1.143h-4.154a2.306 2.306 0 0 1 2.108-1.374zm-5.766 7.916H6.534l1.074-1.442h21.428a.924.924 0 1 0 0-1.848H12.165l1.4-1.4H33.67l2.976 2.976a.924.924 0 0 0 .653.271h2.326l1.075 1.446h-6.88a.924.924 0 0 0-.8.461l-4.458 7.709c-.012.021-.025.04-.038.06a1.417 1.417 0 0 1-.795.589l-.021.006h-.014a1.41 1.41 0 0 1-.353.046h-7.448a1.42 1.42 0 0 1-1.172-.625l-.05-.079-4.458-7.709a.925.925 0 0 0-.799-.458zM9.271 42.185H7.309V28.1a.924.924 0 1 0-1.848 0v14.085H3.5a1.653 1.653 0 0 1-1.651-1.651v-.811h.99a.924.924 0 1 0 0-1.848h-.99v-3.319h.99a.924.924 0 0 0 0-1.848h-.99V29.39h.99a.924.924 0 0 0 0-1.848h-.99v-.567A1.653 1.653 0 0 1 3.5 25.323h5.771a1.653 1.653 0 0 1 1.651 1.651v.567h-.99a.924.924 0 0 0 0 1.848h.99v3.318h-.99a.924.924 0 0 0 0 1.848h.99v3.318h-.99a.924.924 0 1 0 0 1.848h.99v.811a1.653 1.653 0 0 1-1.651 1.653zm3.5-10.438l3.136-1.72v3.134l-3.136 1.72zm15.514 2.931h-9.26a1.271 1.271 0 0 1-1.27-1.262v-4.04a3.3 3.3 0 0 0 2.01.8c.134.006.267 0 .4 0h7.166a3.288 3.288 0 0 0 2.223-.868v4.108a1.271 1.271 0 0 1-1.27 1.263zm3.115-1.517v-3.134l3.136 1.72v3.134zm12.406 9.024h-1.959V28.1a.924.924 0 1 0-1.847 0v14.085h-1.962a1.654 1.654 0 0 1-1.652-1.651v-.811h.991a.924.924 0 1 0 0-1.848h-.991v-3.319h.991a.924.924 0 0 0 0-1.848h-.991V29.39h.991a.924.924 0 1 0 0-1.848h-.991v-.567a1.653 1.653 0 0 1 1.652-1.651h5.771a1.653 1.653 0 0 1 1.651 1.651v.567h-.99a.924.924 0 1 0 0 1.848h.99v3.318h-.991a.924.924 0 0 0 0 1.848h.991v3.318h-.991a.924.924 0 0 0 0 1.848h.991v.811a1.653 1.653 0 0 1-1.651 1.652zm0 0" fill="#fff"/><path data-name="Path 17" d="M19.167 23.808l1.446 2.677a1.5 1.5 0 0 0 1.323.789h3.4a1.5 1.5 0 0 0 1.323-.789l1.446-2.678v-.006l1.148-2.127a1.5 1.5 0 0 0-1.323-2.219h-8.6a1.5 1.5 0 0 0-1.323 2.218l1.148 2.127zm5.964 1.619h-2.989l-.615-1.138h4.215zm2.226-4.123l-.614 1.137h-6.214l-.614-1.137zm0 0" fill="#fff"/><path data-name="Path 18" d="M31.905 17.443a.924.924 0 1 0 .365-1.138.932.932 0 0 0-.365 1.138zm0 0" fill="#fff"/></svg>