<svg xmlns="http://www.w3.org/2000/svg" width="46.201" height="46.201"><path data-name="Path 11" d="M40.786 10.828A5.414 5.414 0 1 1 46.2 5.414a5.42 5.42 0 0 1-5.414 5.414zm0-9.024a3.609 3.609 0 1 0 3.609 3.609A3.614 3.614 0 0 0 40.786 1.8zm0 0" fill="#fff"/><path data-name="Path 12" d="M24.163 9.961H.9a.9.9 0 0 1-.9-.9A5.562 5.562 0 0 1 5.723 3.5a7.306 7.306 0 0 1 11.75-1A6.149 6.149 0 0 1 25.1 8.472a6.261 6.261 0 0 1-.039.686.9.9 0 0 1-.898.803zM1.914 8.156h21.368A4.343 4.343 0 0 0 17.46 4.4a.9.9 0 0 1-1.041-.317 5.5 5.5 0 0 0-9.383.775.9.9 0 0 1-.937.49 3.75 3.75 0 0 0-4.185 2.81zm0 0" fill="#fff"/><path data-name="Path 13" d="M40.378 42.285a.881.881 0 0 1-.176-.018.823.823 0 0 1-.168-.05.914.914 0 0 1-.155-.083.947.947 0 0 1-.137-.113.886.886 0 0 1-.113-.137.907.907 0 0 1-.083-.155.94.94 0 0 1-.051-.169.883.883 0 0 1-.017-.177.873.873 0 0 1 .017-.176.9.9 0 0 1 .051-.168.889.889 0 0 1 .083-.156.855.855 0 0 1 .112-.137.876.876 0 0 1 .137-.112.944.944 0 0 1 .156-.083.9.9 0 0 1 .168-.052.887.887 0 0 1 .353 0 .908.908 0 0 1 .169.052.957.957 0 0 1 .156.083.906.906 0 0 1 .137.112.851.851 0 0 1 .112.137.869.869 0 0 1 .083.156.909.909 0 0 1 .051.168.9.9 0 0 1 .018.176.91.91 0 0 1-.018.177.937.937 0 0 1-.051.169.886.886 0 0 1-.083.155.859.859 0 0 1-.112.137 1.009 1.009 0 0 1-.137.113.962.962 0 0 1-.156.083.833.833 0 0 1-.169.05.881.881 0 0 1-.177.018zm0 0" fill="#fff"/><path data-name="Path 14" d="M45.3 36.564h-1.674v-10.05l.27.2a.9.9 0 0 0 1.437-.727v-4.941a.9.9 0 0 0-.368-.728l-12.34-9.065a.9.9 0 0 0-1.069 0l-5.422 3.983-2.5-1.836a.9.9 0 0 0-1.069 0l-2.5 1.836-5.422-3.983a.9.9 0 0 0-1.068 0l-12.34 9.065a.9.9 0 0 0-.368.727v4.941a.9.9 0 0 0 1.436.728l.271-.2v10.05H.9a.9.9 0 0 0-.9.9v7.832a.9.9 0 0 0 .9.9h44.4a.9.9 0 0 0 .9-.9v-7.832a.9.9 0 0 0-.9-.9zm-3.478-11.376v11.376h-7.186v-7.9l.271.2.014.01.01.007h.005l.009.006h.006l.009.006.01.006.012.007.031.017.013.007.012.006.013.006a.9.9 0 0 0 .657.025l.046-.018h.041l.013-.006a.9.9 0 0 0 .495-.805v-4.941a.9.9 0 0 0-.368-.727l-4.913-3.642 1.069-.785zM25.146 40.48h-4.092v-5.383h4.092zm.9-7.187h-5.9a.9.9 0 0 0-.9.9v6.285h-5.88V27.334l9.731-7.148 9.731 7.148v13.145h-5.877v-6.285a.9.9 0 0 0-.903-.902zm6.042-20.194l11.438 8.4v2.7l-10.9-8.01a.9.9 0 0 0-.992-.05c-.026.016-.052.032-.076.05L29.5 17.705l-1.839-1.351zm-8.99 2.146l11.438 8.4v2.7l-.27-.2-10.633-7.811a.866.866 0 0 0-.076-.05.906.906 0 0 0-.992.05l-10.633 7.811-.27.2v-2.7zM2.672 21.501l11.438-8.4 4.432 3.256-1.842 1.348-2.059-1.512a.9.9 0 0 0-1.068 0l-10.9 8.01zm1.707 3.687l9.731-7.149 1.069.785-4.953 3.638-.011.008a.9.9 0 0 0-.345.573v.052a.911.911 0 0 0 0 .093v4.94a.9.9 0 0 0 .495.805l.014.007a.9.9 0 0 0 .928-.085l.27-.2v7.9H4.379zm7.186 13.181v2.111H1.8v-2.111zM44.4 44.396H1.8v-2.111h34.926a.9.9 0 0 0 0-1.8h-2.09v-2.111H44.4zm0 0" fill="#fff"/><path data-name="Path 15" d="M23.1 31.399a3.9 3.9 0 1 1 3.9-3.9 3.909 3.909 0 0 1-3.9 3.9zm0-6a2.1 2.1 0 1 0 2.1 2.1 2.1 2.1 0 0 0-2.1-2.105zm0 0" fill="#fff"/></svg>