<svg xmlns="http://www.w3.org/2000/svg" width="23.736" height="23.736"><path data-name="Path 44" d="M3.047 0H20.69a2.974 2.974 0 0 1 3.046 3.046V20.69a2.974 2.974 0 0 1-3.046 3.046H3.047A2.974 2.974 0 0 1 0 20.69V3.046A2.974 2.974 0 0 1 3.047 0zm14.244 2.637a1.071 1.071 0 0 0-1.068 1.069v2.558a1.071 1.071 0 0 0 1.068 1.069h2.683a1.072 1.072 0 0 0 1.069-1.069V3.706a1.072 1.072 0 0 0-1.069-1.069zm3.763 7.4h-2.09a6.942 6.942 0 0 1 .3 2.036 7.266 7.266 0 0 1-7.378 7.149 7.266 7.266 0 0 1-7.378-7.149 6.931 6.931 0 0 1 .3-2.036h-2.17v10.027a.946.946 0 0 0 .944.944H20.11a.946.946 0 0 0 .944-.944V10.038zM11.89 7.2a4.7 4.7 0 0 0-4.767 4.619 4.7 4.7 0 0 0 4.767 4.619 4.7 4.7 0 0 0 4.767-4.619A4.7 4.7 0 0 0 11.89 7.2z" fill="#fff"/></svg>