<svg xmlns="http://www.w3.org/2000/svg" width="28.8" height="18" viewBox="0 0 28.8 18">
  <g id="sofa" transform="translate(0 -96)">
    <g id="Group_13" data-name="Group 13" transform="translate(0 96)">
      <path id="Path_24" data-name="Path 24" d="M27,100.8h-.6v-3A1.8,1.8,0,0,0,24.6,96H4.2a1.8,1.8,0,0,0-1.8,1.8v3H1.8A1.8,1.8,0,0,0,0,102.6v7.2a1.8,1.8,0,0,0,1.8,1.8h.6v1.8a.6.6,0,0,0,.6.6H6.6a.6.6,0,0,0,.6-.6v-1.8H21.6v1.8a.6.6,0,0,0,.6.6h3.6a.6.6,0,0,0,.6-.6v-1.8H27a1.8,1.8,0,0,0,1.8-1.8v-7.2A1.8,1.8,0,0,0,27,100.8Zm-23.4-3a.6.6,0,0,1,.6-.6H24.6a.6.6,0,0,1,.6.6v3.11A1.8,1.8,0,0,0,24,102.6v1.8H4.8v-1.8a1.8,1.8,0,0,0-1.2-1.69ZM24,105.6v1.2H4.8v-1.2ZM6,112.8H3.6v-1.2H6Zm19.2,0H22.8v-1.2h2.4Zm2.4-3a.6.6,0,0,1-.6.6H1.8a.6.6,0,0,1-.6-.6v-7.2a.6.6,0,0,1,.6-.6H3a.6.6,0,0,1,.6.6v4.8a.6.6,0,0,0,.6.6H24.6a.6.6,0,0,0,.6-.6v-4.8a.6.6,0,0,1,.6-.6H27a.6.6,0,0,1,.6.6Z" transform="translate(0 -96)" fill="#5b3421"/>
    </g>
  </g>
</svg>
