<svg xmlns="http://www.w3.org/2000/svg" width="35.003" height="18.105" viewBox="0 0 35.003 18.105">
  <g id="bedroom" transform="translate(1 -120.491)">
    <g id="Group_12" data-name="Group 12" transform="translate(-1 120.491)">
      <g id="Group_11" data-name="Group 11">
        <path id="Path_22" data-name="Path 22" d="M274.427,126.6v-3.215a2.847,2.847,0,0,0-2.836-2.9h-7.544a2.86,2.86,0,0,0-2.9,2.9V126.6a2.424,2.424,0,0,0-1.811,2.337v8.449a1.211,1.211,0,0,0,1.207,1.207h1.207a1.211,1.211,0,0,0,1.207-1.207v-1.207h9.656v1.207a1.211,1.211,0,0,0,1.207,1.207h1.207a1.211,1.211,0,0,0,1.207-1.207V128.94A2.424,2.424,0,0,0,274.427,126.6Zm-12.07-3.215a1.65,1.65,0,0,1,1.69-1.69h7.483a1.65,1.65,0,0,1,1.69,1.69v3.138h-.646a4.194,4.194,0,0,0-4.182-3.621h-1.207A4.194,4.194,0,0,0,263,126.526h-.646v-3.138Zm8.992,3.138h-7.121a3.036,3.036,0,0,1,2.957-2.414h1.207A3.036,3.036,0,0,1,271.349,126.526Zm-10.8,2.414a1.211,1.211,0,0,1,1.207-1.207h12.07a1.211,1.211,0,0,1,1.207,1.207v2.414H260.546Zm14.484,8.449h-1.207v-1.811a.57.57,0,0,0-.6-.6H262.357a.6.6,0,0,0-.6.6v1.811h-1.207v-4.828H275.03Z" transform="translate(-241.234 -120.491)" fill="#5b3421"/>
        <path id="Path_23" data-name="Path 23" d="M14.088,126.6v-3.215a2.847,2.847,0,0,0-2.836-2.9H3.707a2.86,2.86,0,0,0-2.9,2.9V126.6A2.424,2.424,0,0,0-1,128.94v8.449A1.211,1.211,0,0,0,.207,138.6H1.414a1.211,1.211,0,0,0,1.207-1.207v-1.207h9.656v1.207a1.211,1.211,0,0,0,1.207,1.207h1.207a1.211,1.211,0,0,0,1.207-1.207V128.94A2.424,2.424,0,0,0,14.088,126.6Zm-12.07-3.215a1.65,1.65,0,0,1,1.69-1.69h7.483a1.65,1.65,0,0,1,1.69,1.69v3.138h-.646a4.194,4.194,0,0,0-4.182-3.621H6.846a4.194,4.194,0,0,0-4.182,3.621H2.018Zm8.992,3.138H3.888a3.036,3.036,0,0,1,2.957-2.414H8.053A3.036,3.036,0,0,1,11.01,126.526ZM.207,128.94a1.211,1.211,0,0,1,1.207-1.207h12.07a1.211,1.211,0,0,1,1.207,1.207v2.414H.207Zm14.484,8.449H13.484v-1.811a.57.57,0,0,0-.6-.6H2.018a.6.6,0,0,0-.6.6v1.811H.207v-4.828H14.691Z" transform="translate(1 -120.491)" fill="#5b3421"/>
      </g>
    </g>
  </g>
</svg>
