<svg xmlns="http://www.w3.org/2000/svg" width="21.967" height="20.921" viewBox="0 0 21.967 20.921">
  <g id="profile" transform="translate(0 -13.415)">
    <path id="Path_20" data-name="Path 20" d="M135.866,25.156a5.87,5.87,0,1,0-5.879-5.879A5.88,5.88,0,0,0,135.866,25.156Zm0-10.208a4.328,4.328,0,1,1-4.328,4.328A4.341,4.341,0,0,1,135.866,14.948Z" transform="translate(-124.919 0)" fill="#5b3421"/>
    <path id="Path_21" data-name="Path 21" d="M.776,349.078H21.191a.77.77,0,0,0,.775-.775,7.385,7.385,0,0,0-7.376-7.376H7.376A7.385,7.385,0,0,0,0,348.3.77.77,0,0,0,.776,349.078Zm6.6-6.6H14.59a5.822,5.822,0,0,1,5.771,5.05H1.605A5.837,5.837,0,0,1,7.376,342.477Z" transform="translate(0 -314.742)" fill="#5b3421"/>
  </g>
</svg>
