<svg id="quad" xmlns="http://www.w3.org/2000/svg" width="135.5" height="126.121" viewBox="0 0 135.5 126.121">
  <path id="Path_35" data-name="Path 35" d="M125.477,67.238h-16.53A10.034,10.034,0,0,0,98.925,77.261v7.632l-9.188-5.041a8.9,8.9,0,0,0-.874-2.353l9.531-16.483h23.452a2.648,2.648,0,0,0,2.122-4.229l-7.024-9.422a2.647,2.647,0,0,0-2.122-1.065h-6.894L99.4,37.776A2.646,2.646,0,0,0,97.533,37H91.939a11.923,11.923,0,0,0-9.125-8.985L85.708,19.9,94.1,14.205h5.4v6.267a2.647,2.647,0,0,0,2.646,2.646h8.756a2.646,2.646,0,0,0,2.646-2.646V18.365H124.9v.784a2.646,2.646,0,0,0,5.293,0V4.3a2.646,2.646,0,0,0-5.293,0v.335H113.553V2.646A2.646,2.646,0,0,0,110.906,0H102.15A2.646,2.646,0,0,0,99.7,1.653H93.287A2.647,2.647,0,0,0,90.64,4.3v5.857l-7.608,5.161L69.188,11.488a2.658,2.658,0,0,0-1.411,0L53.932,15.318l-7.608-5.161V4.3a2.646,2.646,0,0,0-2.646-2.646H37.267A2.646,2.646,0,0,0,34.816,0H26.06a2.646,2.646,0,0,0-2.646,2.646V4.634H12.067V4.3a2.646,2.646,0,0,0-5.293,0V19.15a2.646,2.646,0,0,0,5.293,0v-.785H23.413v2.108A2.646,2.646,0,0,0,26.06,23.12h8.756a2.647,2.647,0,0,0,2.646-2.646V14.206h5.4L51.257,19.9l2.815,7.9A11.91,11.91,0,0,0,43.348,37H37.754a2.647,2.647,0,0,0-1.871.774L27.359,46.3H20.465a2.647,2.647,0,0,0-2.122,1.065l-7.024,9.423a2.647,2.647,0,0,0,2.122,4.228H36.894l9.643,16.675a8.917,8.917,0,0,0-.773,2.162l-9.188,5.04V77.261A10.034,10.034,0,0,0,26.553,67.238H10.023A10.034,10.034,0,0,0,0,77.261V116.1A10.034,10.034,0,0,0,10.023,126.12h16.53A10.034,10.034,0,0,0,36.575,116.1V105.944l10.272-5.634a8.936,8.936,0,0,0,7.642,4.31H81.011a8.936,8.936,0,0,0,7.642-4.31l10.272,5.634V116.1a10.034,10.034,0,0,0,10.023,10.023h16.53A10.034,10.034,0,0,0,135.5,116.1V77.261A10.034,10.034,0,0,0,125.477,67.238ZM86.391,37H76.158l4.186-3.275a2.633,2.633,0,0,0,.583-.647A6.608,6.608,0,0,1,86.391,37Zm-17.908-.714L64.35,33.052h8.266ZM124.9,9.927v3.145H113.553V9.927ZM108.26,7.281V17.827H104.8V5.293h3.463ZM95.933,6.946H99.5V8.913H95.933Zm-27.45,9.84,11.575,3.2-2.772,7.773H59.679l-2.771-7.773ZM12.067,13.072V9.927H23.413v3.145Zm20.1,4.754H28.706V5.293h3.463Zm5.293-8.913V6.945h3.57V8.913ZM54.936,33.052h1.085a2.648,2.648,0,0,0,.6.674L60.807,37H48.9A6.6,6.6,0,0,1,54.936,33.052ZM38.421,55.724H18.715l3.078-4.13H83.165a2.646,2.646,0,0,0,0-5.293H34.844l4.007-4.007H96.437l8.525,8.525a2.646,2.646,0,0,0,1.871.775H113.5l3.078,4.13H96.868a2.647,2.647,0,0,0-2.291,1.321L81.808,79.126c-.034.059-.07.116-.108.172a4.058,4.058,0,0,1-2.276,1.687c-.021.005-.04.013-.061.019s-.028.006-.04.009a4.038,4.038,0,0,1-1.012.131H56.978a4.067,4.067,0,0,1-3.356-1.791c-.05-.073-.1-.15-.143-.227L40.711,57.045A2.648,2.648,0,0,0,38.421,55.724Zm-11.868,65.1H20.934V80.474a2.646,2.646,0,0,0-5.293,0v40.354H10.023a4.736,4.736,0,0,1-4.73-4.73v-2.324H8.13a2.646,2.646,0,1,0,0-5.293H5.293v-9.5H8.13a2.646,2.646,0,1,0,0-5.293H5.293v-9.5H8.13a2.646,2.646,0,1,0,0-5.293H5.293V77.261a4.735,4.735,0,0,1,4.73-4.73h16.53a4.735,4.735,0,0,1,4.73,4.73v1.625H28.446a2.646,2.646,0,0,0,0,5.293h2.837v9.5H28.446a2.646,2.646,0,0,0,0,5.293h2.837v9.5H28.446a2.646,2.646,0,0,0,0,5.293h2.837V116.1A4.735,4.735,0,0,1,26.553,120.828Zm10.023-29.9L45.557,86v8.977l-8.982,4.927Zm44.436,8.4H54.489a3.641,3.641,0,0,1-3.638-3.615V84.14a9.439,9.439,0,0,0,5.757,2.288c.382.018.766.009,1.15.009H77.088c.4,0,.8,0,1.194,0a9.418,9.418,0,0,0,6.367-2.486V95.717A3.64,3.64,0,0,1,81.011,99.327Zm8.932-4.346V86l8.982,4.926v8.977Zm35.534,25.847h-5.619V80.474a2.646,2.646,0,0,0-5.293,0v40.354h-5.618a4.736,4.736,0,0,1-4.731-4.73v-2.324h2.838a2.646,2.646,0,0,0,0-5.293h-2.838v-9.5h2.838a2.646,2.646,0,1,0,0-5.293h-2.838v-9.5h2.838a2.646,2.646,0,1,0,0-5.293h-2.838V77.261a4.735,4.735,0,0,1,4.731-4.73h16.529a4.734,4.734,0,0,1,4.73,4.73v1.625H127.37a2.646,2.646,0,0,0,0,5.293h2.837v9.5h-2.838a2.646,2.646,0,0,0,0,5.293h2.838v9.5h-2.838a2.646,2.646,0,0,0,0,5.293h2.838V116.1A4.736,4.736,0,0,1,125.477,120.828Zm0,0" fill="#fff"/>
  <path id="Path_36" data-name="Path 36" d="M196.812,223.024l4.141,7.669a4.3,4.3,0,0,0,3.79,2.261h9.737a4.3,4.3,0,0,0,3.79-2.261l4.141-7.67.01-.018,3.29-6.092a4.308,4.308,0,0,0-3.79-6.355H197.3a4.307,4.307,0,0,0-3.79,6.354L196.8,223Zm17.081,4.637h-8.562l-1.761-3.261h12.083Zm6.376-11.809-1.758,3.255h-17.8l-1.757-3.255Zm0,0" transform="translate(-141.915 -154.835)" fill="#fff"/>
  <path id="Path_37" data-name="Path 37" d="M344.751,178.63a2.645,2.645,0,1,0,1.046-3.26A2.669,2.669,0,0,0,344.751,178.63Zm0,0" transform="translate(-253.368 -128.67)" fill="#fff"/>
</svg>
