<svg id="food" xmlns="http://www.w3.org/2000/svg" width="198" height="198" viewBox="0 0 198 198">
  <g id="Group_15" data-name="Group 15" transform="translate(105.605 49.481)">
    <g id="Group_14" data-name="Group 14">
      <path id="Path_25" data-name="Path 25" d="M290.617,137.206l-2.119-6.973a15.147,15.147,0,0,0-28.684,0l-2.119,6.973a39.168,39.168,0,0,0-1.092,18.15,17.071,17.071,0,0,0,8.791,11.9l-2.373,53.041a10.451,10.451,0,0,0,2.64,8.125,11.527,11.527,0,0,0,16.285.73q.381-.348.73-.73a10.31,10.31,0,0,0,2.64-7.9l-2.386-53.269a17.067,17.067,0,0,0,8.778-11.89A39.168,39.168,0,0,0,290.617,137.206Zm-5.409,17a10.463,10.463,0,0,1-6.848,7.884,3.3,3.3,0,0,0-2.135,3.237l2.508,55.707a3.818,3.818,0,0,1-.99,2.99,5.1,5.1,0,0,1-7.174,0,3.961,3.961,0,0,1-.97-3.208l2.488-55.49a3.3,3.3,0,0,0-2.135-3.237,10.463,10.463,0,0,1-6.848-7.884,32.543,32.543,0,0,1,.908-15.068l2.119-6.976a8.557,8.557,0,0,1,16.051,0l2.119,6.976A32.587,32.587,0,0,1,285.209,154.208Z" transform="translate(-256.012 -119.955)" fill="#fff"/>
    </g>
  </g>
  <g id="Group_17" data-name="Group 17" transform="translate(56.1 49.5)">
    <g id="Group_16" data-name="Group 16">
      <path id="Path_26" data-name="Path 26" d="M169,120a3.3,3.3,0,0,0-3.3,3.3v28.334l-8.933,8.933a3.3,3.3,0,0,0-.967,2.5l2.887,57.75a4.5,4.5,0,0,1-1.247,3.363,4.646,4.646,0,0,1-6.571.029l-.029-.029a4.494,4.494,0,0,1-1.247-3.363l2.907-57.75a3.3,3.3,0,0,0-.964-2.5l-8.936-8.933V123.3a3.3,3.3,0,1,0-6.6,0V153a3.3,3.3,0,0,0,.967,2.333l8.864,8.867-2.815,56.295a11.147,11.147,0,1,0,22.268,1.085q.027-.542,0-1.084L162.469,164.2l8.864-8.867A3.3,3.3,0,0,0,172.3,153V123.3A3.3,3.3,0,0,0,169,120Z" transform="translate(-136 -120)" fill="#fff"/>
    </g>
  </g>
  <g id="Group_19" data-name="Group 19" transform="translate(66 49.5)">
    <g id="Group_18" data-name="Group 18">
      <path id="Path_27" data-name="Path 27" d="M163.3,120a3.3,3.3,0,0,0-3.3,3.3v26.4a3.3,3.3,0,1,0,6.6,0V123.3A3.3,3.3,0,0,0,163.3,120Z" transform="translate(-160 -120)" fill="#fff"/>
    </g>
  </g>
  <g id="Group_21" data-name="Group 21" transform="translate(75.9 49.5)">
    <g id="Group_20" data-name="Group 20">
      <path id="Path_28" data-name="Path 28" d="M187.3,120a3.3,3.3,0,0,0-3.3,3.3v26.4a3.3,3.3,0,1,0,6.6,0V123.3A3.3,3.3,0,0,0,187.3,120Z" transform="translate(-184 -120)" fill="#fff"/>
    </g>
  </g>
  <g id="Group_23" data-name="Group 23">
    <g id="Group_22" data-name="Group 22">
      <path id="Path_29" data-name="Path 29" d="M99,0a99,99,0,1,0,99,99A99,99,0,0,0,99,0Zm0,191.4A92.4,92.4,0,1,1,191.4,99,92.4,92.4,0,0,1,99,191.4Z" fill="#fff"/>
    </g>
  </g>
  <g id="Group_25" data-name="Group 25" transform="translate(88.322 157.966)">
    <g id="Group_24" data-name="Group 24">
      <path id="Path_30" data-name="Path 30" d="M235.5,385.928a3.3,3.3,0,0,0-3.605-2.964l-.127.015.013,0a60.62,60.62,0,0,1-13.985,0,3.3,3.3,0,1,0-.769,6.557,66.841,66.841,0,0,0,15.51,0A3.3,3.3,0,0,0,235.5,385.928Z" transform="translate(-214.113 -382.949)" fill="#fff"/>
    </g>
  </g>
  <g id="Group_27" data-name="Group 27" transform="translate(139.959 55.297)">
    <g id="Group_26" data-name="Group 26">
      <path id="Path_31" data-name="Path 31" d="M348.826,135.232a3.3,3.3,0,0,0-4.649-.408l-.014.012a3.3,3.3,0,0,0-.4,4.65,59.4,59.4,0,0,1-3.5,80.345,3.3,3.3,0,1,0,4.66,4.676A66,66,0,0,0,348.826,135.232Z" transform="translate(-339.295 -134.053)" fill="#fff"/>
    </g>
  </g>
  <g id="Group_30" data-name="Group 30" transform="translate(73.583 33.011)">
    <g id="Group_29" data-name="Group 29">
      <g id="Group_28" data-name="Group 28">
        <path id="Path_32" data-name="Path 32" d="M186.368,105.743h0Z" transform="translate(-183.064 -95.135)" fill="#fff"/>
        <path id="Path_33" data-name="Path 33" d="M219.365,81.86a66.584,66.584,0,0,0-38.844,2.386,3.3,3.3,0,1,0,2.313,6.174,59.95,59.95,0,0,1,34.98-2.145,3.3,3.3,0,0,0,1.551-6.415Z" transform="translate(-178.382 -80.027)" fill="#fff"/>
      </g>
    </g>
  </g>
  <g id="Group_32" data-name="Group 32" transform="translate(32.995 58.776)">
    <g id="Group_31" data-name="Group 31">
      <path id="Path_34" data-name="Path 34" d="M103.915,224.622a59.393,59.393,0,0,1-5.966-76.85,3.3,3.3,0,1,0-5.276-3.966l-.057.078a66,66,0,0,0,6.623,85.411,3.305,3.305,0,0,0,4.676-4.673Z" transform="translate(-79.989 -142.488)" fill="#fff"/>
    </g>
  </g>
</svg>
