<svg xmlns="http://www.w3.org/2000/svg" width="148.5" height="159.623" viewBox="0 0 148.5 159.623">
  <g id="sauna" transform="translate(-17.838)">
    <g id="Group_34" data-name="Group 34" transform="translate(80.095 66.459)">
      <g id="Group_33" data-name="Group 33">
        <path id="Path_38" data-name="Path 38" d="M224.912,216.168a3.739,3.739,0,0,0-.556-1.338,3.553,3.553,0,0,0-.462-.566,3.763,3.763,0,0,0-3.366-1.021,3.738,3.738,0,0,0-1.338.556,3.79,3.79,0,0,0-1.033,1.033,3.79,3.79,0,0,0-.343.641,3.867,3.867,0,0,0-.213.7,3.742,3.742,0,0,0,1.021,3.366,3.567,3.567,0,0,0,.566.462,3.791,3.791,0,0,0,.641.343,3.863,3.863,0,0,0,.7.213,3.726,3.726,0,0,0,4.458-3.653A3.656,3.656,0,0,0,224.912,216.168Z" transform="translate(-217.531 -213.172)" fill="#fff"/>
      </g>
    </g>
    <g id="Group_36" data-name="Group 36" transform="translate(45.095 67.739)">
      <g id="Group_35" data-name="Group 35">
        <path id="Path_39" data-name="Path 39" d="M112.649,220.275a3.6,3.6,0,0,0-.213-.7,3.8,3.8,0,0,0-.343-.641,3.631,3.631,0,0,0-1.029-1.029,3.689,3.689,0,0,0-.645-.343,3.511,3.511,0,0,0-.7-.213,3.67,3.67,0,0,0-1.454,0,3.6,3.6,0,0,0-.7.213,3.8,3.8,0,0,0-.641.343,3.554,3.554,0,0,0-.566.462,3.706,3.706,0,0,0-.809,1.208,3.9,3.9,0,0,0-.213.7,3.77,3.77,0,0,0,0,1.454,3.745,3.745,0,0,0,.213.7,3.7,3.7,0,0,0,.343.645,3.794,3.794,0,0,0,.466.566,3.585,3.585,0,0,0,.566.462,3.791,3.791,0,0,0,.641.343,3.9,3.9,0,0,0,.7.213,3.584,3.584,0,0,0,1.454,0,3.756,3.756,0,0,0,.7-.213,3.7,3.7,0,0,0,.645-.343,3.63,3.63,0,0,0,1.029-1.029,3.688,3.688,0,0,0,.343-.645,3.509,3.509,0,0,0,.213-.7,3.577,3.577,0,0,0,0-1.454Z" transform="translate(-105.268 -217.276)" fill="#fff"/>
      </g>
    </g>
    <g id="Group_38" data-name="Group 38" transform="translate(115.091 67.735)">
      <g id="Group_37" data-name="Group 37">
        <path id="Path_40" data-name="Path 40" d="M337.168,220.267a3.877,3.877,0,0,0-.213-.7,3.69,3.69,0,0,0-2.017-2.013,3.85,3.85,0,0,0-.7-.216,3.687,3.687,0,0,0-1.457,0,3.783,3.783,0,0,0-.7.216,3.584,3.584,0,0,0-1.212.805,3.583,3.583,0,0,0-.462.566,3.789,3.789,0,0,0-.343.641,3.9,3.9,0,0,0-.213.7,3.584,3.584,0,0,0,0,1.454,3.79,3.79,0,0,0,.213.7,3.7,3.7,0,0,0,.343.645,3.554,3.554,0,0,0,.462.566,3.76,3.76,0,0,0,.566.462,3.974,3.974,0,0,0,.645.343,3.509,3.509,0,0,0,.7.213,3.68,3.68,0,0,0,.727.075,3.722,3.722,0,0,0,.731-.075,3.564,3.564,0,0,0,.7-.213,3.8,3.8,0,0,0,.641-.343,3.554,3.554,0,0,0,.566-.462,3.831,3.831,0,0,0,.466-.566,3.689,3.689,0,0,0,.343-.645,3.774,3.774,0,0,0,.213-.7,3.76,3.76,0,0,0,0-1.454Z" transform="translate(-329.783 -217.265)" fill="#fff"/>
      </g>
    </g>
    <g id="Group_40" data-name="Group 40" transform="translate(17.838)">
      <g id="Group_39" data-name="Group 39">
        <path id="Path_41" data-name="Path 41" d="M165.926,76.351a3.728,3.728,0,0,0-5.018-1.615,76.741,76.741,0,0,0-15.041,10.12l3.9-27.309a3.728,3.728,0,0,0-3.69-4.255h-44.7L99.946,45.4a25.563,25.563,0,1,0-32.248,0l-1.435,7.893h-44.7a3.728,3.728,0,0,0-3.69,4.255l4.59,32.128a3.719,3.719,0,0,0-3.473,4.275l3.531,23.306a3.728,3.728,0,0,0,3.686,3.169h.649l5.143,36a3.728,3.728,0,0,0,3.69,3.2h96.261a3.727,3.727,0,0,0,3.69-3.2l5.143-36h.649a3.728,3.728,0,0,0,3.686-3.169l3.531-23.306a3.725,3.725,0,0,0-.084-1.506,69.133,69.133,0,0,1,15.744-11.075A3.727,3.727,0,0,0,165.926,76.351ZM65.715,25.562A18.107,18.107,0,1,1,93.8,40.67a3.729,3.729,0,0,0-1.609,3.775L93.8,53.292H73.84l1.608-8.847a3.726,3.726,0,0,0-1.609-3.774A18.085,18.085,0,0,1,65.715,25.562ZM30.091,112.97h-.676l-2.4-15.851H134.454a75.825,75.825,0,0,0-9.035,15.851Zm92.643,7.455q-.766,2.53-1.36,5.131h-5.267l.668-5.131Zm-13.478,0-.668,5.131H87.549v-5.131ZM38.924,152.167l-4.535-31.742H50.845l2.478,20.512a3.728,3.728,0,0,0,3.7,3.281,3.814,3.814,0,0,0,.452-.027,3.728,3.728,0,0,0,3.254-4.148l-2.369-19.617H80.094v6.991a3.7,3.7,0,0,0-.505,1.868v5.405a24.34,24.34,0,0,0,7.391,17.477H38.924Zm82.042-17.477a16.961,16.961,0,0,1-33.922,0v-1.678h33.922v1.678Zm7.754,17.477h-7.688a24.34,24.34,0,0,0,7.391-17.477v-5.405a3.772,3.772,0,0,0-.075-.746,69.683,69.683,0,0,1,2.219-8.113h2.688Zm9.508-39.2h-4.639a68.376,68.376,0,0,1,6.242-10.58Zm-.58-23.306H120.514l.872-7.219a3.728,3.728,0,0,0-7.4-.894L113,89.664H87.549V80.779a3.728,3.728,0,0,0-7.455,0v8.885H54.639l-.98-8.114a3.728,3.728,0,0,0-7.4.894l.872,7.219H29.995L25.864,60.748H141.78Z" transform="translate(-17.838 0)" fill="#fff"/>
      </g>
    </g>
    <g id="Group_42" data-name="Group 42" transform="translate(70.837 12.775)">
      <g id="Group_41" data-name="Group 41">
        <path id="Path_42" data-name="Path 42" d="M200.822,40.976a12.985,12.985,0,1,0,12.985,12.985A13,13,0,0,0,200.822,40.976Zm0,18.514a5.529,5.529,0,1,1,5.529-5.529A5.536,5.536,0,0,1,200.821,59.49Z" transform="translate(-187.837 -40.976)" fill="#fff"/>
      </g>
    </g>
  </g>
</svg>
