<svg id="quad" xmlns="http://www.w3.org/2000/svg" width="47.308" height="44.033" viewBox="0 0 47.308 44.033">
  <path id="Path_16" data-name="Path 16" d="M43.809,23.475H38.037a3.5,3.5,0,0,0-3.5,3.5v2.665l-3.208-1.76a3.107,3.107,0,0,0-.3-.821L34.353,21.3h8.188a.924.924,0,0,0,.741-1.477l-2.452-3.29a.924.924,0,0,0-.741-.372H37.682l-2.976-2.976a.924.924,0,0,0-.653-.271H32.1a4.163,4.163,0,0,0-3.186-3.137l1.01-2.834,2.93-1.988H34.74V7.148a.924.924,0,0,0,.924.924h3.057a.924.924,0,0,0,.924-.924V6.412h3.961v.274a.924.924,0,1,0,1.848,0V1.5a.924.924,0,1,0-1.848,0v.117H39.645V.924A.924.924,0,0,0,38.721,0H35.664a.924.924,0,0,0-.856.577H32.57a.924.924,0,0,0-.924.924V3.546l-2.656,1.8L24.156,4.011a.928.928,0,0,0-.493,0L18.83,5.348l-2.656-1.8V1.5A.924.924,0,0,0,15.25.577H13.011A.924.924,0,0,0,12.155,0H9.1a.924.924,0,0,0-.924.924v.694H4.213V1.5a.924.924,0,1,0-1.848,0V6.686a.924.924,0,1,0,1.848,0V6.412H8.174v.736a.924.924,0,0,0,.924.924h3.057a.924.924,0,0,0,.924-.924V4.96h1.887L17.9,6.947,18.878,9.7a4.158,4.158,0,0,0-3.744,3.215H13.181a.924.924,0,0,0-.653.27L9.552,16.165H7.145a.924.924,0,0,0-.741.372l-2.452,3.29A.924.924,0,0,0,4.693,21.3h8.188l3.367,5.822a3.113,3.113,0,0,0-.27.755l-3.208,1.76V26.975a3.5,3.5,0,0,0-3.5-3.5H3.5a3.5,3.5,0,0,0-3.5,3.5V40.534a3.5,3.5,0,0,0,3.5,3.5H9.271a3.5,3.5,0,0,0,3.5-3.5V36.989l3.586-1.967a3.12,3.12,0,0,0,2.668,1.5h9.26a3.12,3.12,0,0,0,2.668-1.5l3.586,1.967v3.545a3.5,3.5,0,0,0,3.5,3.5h5.771a3.5,3.5,0,0,0,3.5-3.5V26.975A3.5,3.5,0,0,0,43.809,23.475ZM30.162,12.918H26.589l1.461-1.143a.919.919,0,0,0,.2-.226A2.307,2.307,0,0,1,30.162,12.918Zm-6.252-.249L22.467,11.54h2.886Zm19.7-9.2v1.1H39.645v-1.1ZM37.8,2.542V6.224H36.588V1.848H37.8Zm-4.3-.117H34.74v.687H33.494ZM23.91,5.86l4.041,1.117-.968,2.714H20.836l-.967-2.714Zm-19.7-1.3v-1.1H8.174v1.1Zm7.018,1.66H10.022V1.848h1.209Zm1.848-3.112V2.425h1.246v.687Zm6.1,8.428h.379a.925.925,0,0,0,.21.235l1.461,1.143H17.072A2.306,2.306,0,0,1,19.18,11.54Zm-5.766,7.916H6.534l1.074-1.442H29.036a.924.924,0,1,0,0-1.848H12.165l1.4-1.4H33.67l2.976,2.976a.924.924,0,0,0,.653.271h2.326L40.7,19.455H33.82a.924.924,0,0,0-.8.461l-4.458,7.709c-.012.021-.025.04-.038.06a1.417,1.417,0,0,1-.795.589l-.021.006-.014,0a1.41,1.41,0,0,1-.353.046H19.893a1.42,1.42,0,0,1-1.172-.625c-.017-.026-.034-.052-.05-.079l-4.458-7.709A.925.925,0,0,0,13.414,19.455ZM9.271,42.185H7.309V28.1a.924.924,0,1,0-1.848,0V42.185H3.5a1.653,1.653,0,0,1-1.651-1.651v-.811h.99a.924.924,0,1,0,0-1.848h-.99V34.556h.99a.924.924,0,0,0,0-1.848h-.99V29.39h.99a.924.924,0,0,0,0-1.848h-.99v-.567A1.653,1.653,0,0,1,3.5,25.323H9.271a1.653,1.653,0,0,1,1.651,1.651v.567h-.99a.924.924,0,0,0,0,1.848h.99v3.318h-.99a.924.924,0,0,0,0,1.848h.99v3.318h-.99a.924.924,0,1,0,0,1.848h.99v.811A1.653,1.653,0,0,1,9.271,42.185Zm3.5-10.438,3.136-1.72v3.134l-3.136,1.72Zm15.514,2.931h-9.26a1.271,1.271,0,0,1-1.27-1.262v-4.04a3.3,3.3,0,0,0,2.01.8c.134.006.267,0,.4,0h7.166a3.288,3.288,0,0,0,2.223-.868v4.108A1.271,1.271,0,0,1,28.284,34.679ZM31.4,33.161V30.027l3.136,1.72v3.134Zm12.406,9.024H41.847V28.1A.924.924,0,1,0,40,28.1V42.185H38.038a1.654,1.654,0,0,1-1.652-1.651v-.811h.991a.924.924,0,1,0,0-1.848h-.991V34.556h.991a.924.924,0,0,0,0-1.848h-.991V29.39h.991a.924.924,0,1,0,0-1.848h-.991v-.567a1.653,1.653,0,0,1,1.652-1.651h5.771a1.653,1.653,0,0,1,1.651,1.651v.567h-.99a.924.924,0,1,0,0,1.848h.99v3.318h-.991a.924.924,0,0,0,0,1.848h.991v3.318h-.991a.924.924,0,0,0,0,1.848h.991v.811A1.653,1.653,0,0,1,43.809,42.185Zm0,0" fill="#fff"/>
  <path id="Path_17" data-name="Path 17" d="M194.325,214.911l1.446,2.677a1.5,1.5,0,0,0,1.323.789h3.4a1.5,1.5,0,0,0,1.323-.789l1.446-2.678,0-.006,1.148-2.127a1.5,1.5,0,0,0-1.323-2.219h-8.6a1.5,1.5,0,0,0-1.323,2.218l1.148,2.127Zm5.964,1.619H197.3l-.615-1.138H200.9Zm2.226-4.123-.614,1.137h-6.214l-.614-1.137Zm0,0" transform="translate(-175.158 -191.103)" fill="#fff"/>
  <path id="Path_18" data-name="Path 18" d="M344.622,176.253a.924.924,0,1,0,.365-1.138A.932.932,0,0,0,344.622,176.253Zm0,0" transform="translate(-312.717 -158.81)" fill="#fff"/>
</svg>
