<svg id="vkontakte-logo" xmlns="http://www.w3.org/2000/svg" width="24" height="24" viewBox="0 0 24 24">
  <path id="Path_43" data-name="Path 43" d="M13.293,13.227A2.783,2.783,0,0,0,11.939,13H10.513v2.94h1.309a2.7,2.7,0,0,0,1.521-.259,1.526,1.526,0,0,0,.6-1.248A1.5,1.5,0,0,0,13.293,13.227Zm-.538-2.511a1.367,1.367,0,0,0,.484-1.07,1.238,1.238,0,0,0-.567-1.069A3.51,3.51,0,0,0,11.134,8.4h-.621v2.587h.822A2.258,2.258,0,0,0,12.755,10.716ZM19.781,0H4.218A4.219,4.219,0,0,0,0,4.219V19.781A4.219,4.219,0,0,0,4.218,24H19.781A4.219,4.219,0,0,0,24,19.781V4.219A4.219,4.219,0,0,0,19.781,0Zm-7.13,18.134h-4.9V6.3H13.1a2.774,2.774,0,0,1,2.983,2.73,2.518,2.518,0,0,1-1.709,2.553v.035a2.693,2.693,0,0,1,2.435,2.926C16.814,16.266,15.641,18.134,12.651,18.134Z" fill="#fff"/>
</svg>
